<?xml version="1.0" encoding="utf-8"?>
<!-- Generator: Adobe Illustrator 16.0.4, SVG Export Plug-In . SVG Version: 6.00 Build 0)  -->
<!DOCTYPE svg PUBLIC "-//W3C//DTD SVG 1.1//EN" "http://www.w3.org/Graphics/SVG/1.1/DTD/svg11.dtd">
<svg version="1.1" id="Layer_1" xmlns="http://www.w3.org/2000/svg" xmlns:xlink="http://www.w3.org/1999/xlink" x="0px" y="0px"
	 width="674.469px" height="141.25px" viewBox="0 0 674.469 141.25" enable-background="new 0 0 674.469 141.25"
	 xml:space="preserve">
<g enable-background="new    ">
	<path d="M6.61,53.427c3.518-7.519,8.119-13.718,13.8-18.6c5.677-4.879,12.199-8.479,19.56-10.801
		c7.357-2.317,14.88-3.479,22.56-3.479c8.798,0,16.68,1.08,23.64,3.24s11.959,4.601,15,7.319c-1.121,2.4-2.123,4.92-3,7.561
		c-0.881,2.64-1.643,5.399-2.28,8.28h-1.92c-1.122-2.078-2.64-4.2-4.56-6.36s-4.2-4.159-6.84-6c-2.64-1.838-5.561-3.36-8.76-4.561
		c-3.203-1.199-6.72-1.8-10.56-1.8c-7.2,0-13.402,1.32-18.6,3.96c-5.201,2.641-9.442,6.281-12.72,10.92
		c-3.281,4.643-5.682,10.122-7.2,16.44c-1.522,6.322-2.28,13.162-2.28,20.52c0,16.481,3.517,28.92,10.56,37.32
		c7.039,8.4,17.359,12.6,30.96,12.6c3.199,0,6.48-0.438,9.84-1.319c3.36-0.878,6.637-2.078,9.84-3.601
		c3.199-1.519,6.199-3.318,9-5.399c2.797-2.078,5.239-4.32,7.32-6.72l1.2,0.72c-0.802,3.84-1.282,7.763-1.44,11.76
		c-4.8,3.84-10.763,7.121-17.88,9.84c-7.122,2.719-14.52,4.08-22.2,4.08c-6.881,0-13.8-1.001-20.76-3s-13.241-5.358-18.84-10.08
		c-5.603-4.718-10.121-10.837-13.56-18.359c-3.443-7.52-5.16-16.718-5.16-27.601C1.33,69.908,3.089,60.949,6.61,53.427z"/>
	<path d="M151.57,23.427c6.079-1.92,12.319-2.88,18.72-2.88c5.76,0,11.044,0.84,15.855,2.52c4.808,1.681,8.917,4.08,12.322,7.2
		c3.405,3.12,6.079,6.882,8.025,11.28c1.942,4.402,2.917,9.24,2.917,14.52c0,9.12-0.162,18.203-0.48,27.24
		c-0.323,9.041-0.48,18.601-0.48,28.68c0,1.921,0.037,3.961,0.12,6.12c0.079,2.16,0.439,4.08,1.08,5.761
		c0.638,1.68,1.56,3.082,2.76,4.199c1.2,1.122,3,1.681,5.4,1.681c0.799,0,1.639-0.038,2.52-0.12c0.877-0.079,1.717-0.36,2.52-0.84
		v5.279c-1.763,0.803-3.96,1.44-6.6,1.92c-2.64,0.48-5.561,0.721-8.76,0.721c-5.198,0-9.173-1.32-11.933-3.96
		c-2.76-2.641-4.38-6.038-4.868-10.2c-5.741,5.76-11.404,10.001-16.984,12.72c-5.58,2.719-12.435,4.08-20.565,4.08
		c-3.99,0-7.897-0.562-11.722-1.68c-3.825-1.121-7.215-2.959-10.163-5.521c-2.951-2.558-5.344-5.64-7.178-9.239
		c-1.833-3.601-2.749-7.718-2.749-12.36c0-9.6,2.989-17.04,8.97-22.32c5.978-5.279,14.231-8.797,24.754-10.56
		c8.61-1.44,15.345-2.678,20.209-3.72c4.864-1.039,8.452-2.119,10.762-3.24c2.31-1.118,3.705-2.438,4.185-3.96
		c0.48-1.519,0.72-3.48,0.72-5.88c0-3.998-0.48-7.838-1.44-11.521c-0.96-3.679-2.483-6.877-4.56-9.6
		c-2.082-2.719-4.8-4.92-8.16-6.601c-3.36-1.68-7.44-2.52-12.24-2.52c-6.401,0-12.36,1.439-17.88,4.32
		c-5.52,2.88-9.641,6.881-12.36,12h-2.64v-12.48C138.85,29.029,145.488,25.347,151.57,23.427z M181.495,79.587
		c-3.585,0.642-7.208,1.32-10.868,2.04c-3.664,0.72-7.286,1.643-10.868,2.76c-3.585,1.121-6.769,2.64-9.555,4.561
		c-2.786,1.92-5.014,4.319-6.687,7.199c-1.672,2.88-2.509,6.562-2.509,11.04c0,7.522,2.149,13.2,6.446,17.04
		c4.298,3.84,9.075,5.76,14.333,5.76c6.053,0,11.584-1.68,16.602-5.039c5.014-3.36,8.876-7.279,11.583-11.761l0.957-36
		C188.223,78.146,185.076,78.949,181.495,79.587z"/>
	<path d="M249.61,45.146c-0.24-7.92-0.761-15.318-1.56-22.199c4.478,0.802,8.078,1.199,10.8,1.199c1.279,0,2.677-0.12,4.2-0.359
		c1.519-0.24,3.319-0.518,5.4-0.84c-0.48,6.4-0.72,12.802-0.72,19.199h0.48c8.453-14.399,20.333-21.6,35.647-21.6
		c3.986,0,7.894,0.6,11.723,1.8c3.825,1.2,7.294,2.843,10.406,4.92c3.112,2.081,5.782,4.602,8.018,7.561
		c2.231,2.962,3.746,6.12,4.544,9.479h0.48c3.852-7.68,9.105-13.56,15.766-17.64s14.32-6.12,22.986-6.12
		c5.295,0,10.193,0.72,14.686,2.16c4.492,1.439,8.381,3.683,11.674,6.72c3.289,3.041,5.857,6.96,7.703,11.76
		c1.844,4.8,2.768,10.561,2.768,17.28c0,2.723-0.084,5.682-0.24,8.88c-0.162,3.202-0.322,6.923-0.48,11.16
		c-0.162,4.241-0.322,9.041-0.48,14.4c-0.16,5.362-0.24,11.561-0.24,18.6c0,4.32,0.037,8.482,0.121,12.479
		c0.078,4.002,0.277,8.321,0.6,12.961c-1.762-0.323-3.521-0.48-5.279-0.48c-1.764,0-3.443,0-5.041,0c-1.762,0-3.521,0-5.279,0
		c-1.764,0-3.521,0.157-5.281,0.48c0.48-3.998,0.998-12.079,1.561-24.24c0.559-12.158,0.84-29.119,0.84-50.88
		c0-3.998-0.441-7.759-1.328-11.28c-0.885-3.518-2.291-6.559-4.219-9.12c-1.926-2.558-4.5-4.598-7.713-6.12
		c-3.213-1.519-7.23-2.28-12.049-2.28c-5.785,0-10.688,1.122-14.703,3.36c-4.02,2.242-7.152,4.883-9.402,7.92
		c-1.289,1.763-2.295,3.521-3.014,5.28c-0.725,1.763-1.287,4.439-1.688,8.04c-0.402,3.6-0.684,8.64-0.844,15.12
		c-0.162,6.479-0.24,15.401-0.24,26.76c0,6.881,0.119,13.162,0.359,18.84c0.24,5.682,0.518,11.88,0.84,18.601
		c-3.637-0.323-7.117-0.48-10.44-0.48c-3.322,0-6.802,0.157-10.439,0.48c0.708-8.798,1.207-17.761,1.492-26.881
		c0.285-9.119,0.428-18.078,0.428-26.88c0-7.519-0.041-13.398-0.12-17.64c-0.083-4.237-0.281-7.598-0.6-10.08
		c-0.319-2.479-0.758-4.519-1.312-6.12c-0.56-1.598-1.316-3.36-2.27-5.28c-1.755-3.037-4.504-5.64-8.246-7.8
		s-7.604-3.24-11.587-3.24c-10.516,0-18.24,3.443-23.179,10.32c-4.939,6.882-7.406,16.561-7.406,29.04v20.4
		c0,7.199,0.12,14.76,0.36,22.68c0.24,7.92,0.758,15.082,1.56,21.48c-3.683-0.323-7.282-0.48-10.8-0.48
		c-3.521,0-7.122,0.157-10.8,0.48c0.799-6.398,1.32-13.561,1.56-21.48c0.24-7.92,0.36-15.48,0.36-22.68v-24.96
		C249.97,60.627,249.85,53.066,249.61,45.146z"/>
	<path d="M453.609,37.347c9.359-11.197,22.998-16.8,40.92-16.8c8.479,0,15.799,1.32,21.959,3.96
		c6.158,2.64,11.318,6.161,15.48,10.56c4.158,4.403,7.236,9.562,9.24,15.48c1.998,5.921,3,12.24,3,18.96
		c0,1.602-0.041,3.161-0.121,4.68c-0.082,1.522-0.201,3.083-0.359,4.681c-8.641-0.158-17.201-0.319-25.68-0.48
		c-8.482-0.157-17.041-0.24-25.68-0.24c-5.281,0-10.523,0.083-15.721,0.24c-5.201,0.161-10.439,0.322-15.721,0.48
		c-0.16,0.802-0.24,2.002-0.24,3.6v3.12c0,6.24,0.92,12.082,2.762,17.52c1.836,5.441,4.518,10.122,8.039,14.04
		c3.518,3.923,7.838,7.043,12.961,9.36c5.117,2.321,11.039,3.479,17.76,3.479c3.197,0,6.479-0.438,9.84-1.319
		c3.359-0.878,6.637-2.078,9.84-3.601c3.199-1.519,6.199-3.318,9-5.399c2.797-2.078,5.238-4.32,7.32-6.72l1.199,0.72l-1.439,11.76
		c-4.801,3.84-10.764,7.121-17.881,9.84c-7.121,2.719-14.52,4.08-22.199,4.08c-8.641,0-16.523-1.32-23.641-3.96
		c-7.121-2.64-13.281-6.479-18.48-11.52c-5.201-5.04-9.201-10.999-12-17.881c-2.801-6.877-4.199-14.317-4.199-22.319
		C439.568,63.986,444.248,48.548,453.609,37.347z M480.008,32.307c-4.08,2.723-7.439,6.12-10.08,10.2
		c-2.639,4.08-4.643,8.562-6,13.44c-1.361,4.882-2.201,9.479-2.52,13.8c4.957,0.161,10.117,0.322,15.48,0.479
		c5.359,0.161,10.598,0.24,15.721,0.24c5.279,0,10.639-0.079,16.078-0.24c5.438-0.157,10.719-0.318,15.842-0.479
		c0-4.32-0.361-8.88-1.08-13.681c-0.721-4.8-2.16-9.277-4.32-13.439c-2.16-4.159-5.16-7.598-9-10.32
		c-3.84-2.719-8.881-4.08-15.121-4.08C489.088,28.227,484.088,29.588,480.008,32.307z"/>
</g>
<g id="yeast">
	<ellipse cx="618.201" cy="78.137" rx="55.73" ry="60.33"/>
	<ellipse transform="matrix(0.2761 -0.9611 0.9611 0.2761 452.1465 644.7259)" cx="654.08" cy="22.201" rx="18.16" ry="16.815"/>
</g>
<g id="Ecoli">
	<g>
		<g>
			<g>
				<path fill="#FDFDFE" d="M638.996,85.438c8.182-2.474,8.019-13.701,16.423-16.188c2.64-0.78,5.283,0.704,7.611,1.74
					c2.101,0.935,4.23,1.468,6.52,1.65c5.473,0.438,10.886-2.056,15.546-4.634c0.611-0.339,0.063-1.277-0.549-0.938
					c-5.68,3.143-11.86,5.548-18.402,3.927c-4.168-1.033-7.228-3.914-11.724-2.584c-8.098,2.396-7.927,13.623-15.714,15.977
					C638.039,84.592,638.324,85.641,638.996,85.438L638.996,85.438z"/>
			</g>
		</g>
		<g>
			<g>
				<path fill="#FDFDFE" d="M639.736,83.609c1.559-5.866,7.037-9.088,12.88-9.416c5.375-0.301,10.461,1.763,15.714-0.305
					c4.131-1.623,7.403-5.169,10.229-8.454c3.333-3.875,6.173-8.148,9.542-11.992c0.46-0.524-0.306-1.295-0.769-0.768
					c-6.389,7.29-11.921,18.833-22.212,21.009c-3.026,0.641-6.388-0.135-9.413-0.443c-2.736-0.279-5.253-0.021-7.875,0.789
					c-4.521,1.396-7.928,4.709-9.144,9.291C638.51,83.999,639.557,84.286,639.736,83.609L639.736,83.609z"/>
			</g>
		</g>
		<g>
			<g>
				<path fill="#FDFDFE" d="M596.253,102.441c-0.032-5.436-0.802-11.072,1.028-16.312c2.421-6.931,9.247-6.939,15.312-8.125
					c4.939-0.966,8.03-3.593,10.042-8.111c2.453-5.511,8.248-9.09,13.899-10.681c8.521-2.399,19.208,1.004,26.261-5.676
					c2.146-2.033,3.413-4.845,4.676-7.462c1.853-3.837,3.914-7.438,6.809-10.601c0.473-0.515-0.294-1.285-0.768-0.768
					c-2.738,2.991-4.801,6.366-6.579,9.997c-1.449,2.959-2.766,6.038-5.199,8.344c-3.448,3.266-8.736,3.764-13.232,3.927
					c-5.693,0.206-11.046,0.323-16.353,2.668c-4.697,2.076-8.644,5.643-10.725,10.317c-2.814,6.321-8.627,6.894-14.732,7.903
					c-5.023,0.832-8.522,3.178-10.457,7.979c-2.073,5.146-1.1,11.213-1.067,16.6C595.171,103.143,596.257,103.143,596.253,102.441
					L596.253,102.441z"/>
			</g>
		</g>
		<g>
			<g>
				<path fill="#FDFDFE" d="M610.917,102.135c4.479,3.287,9.633,5.946,15.081,3.471c4.871-2.215,8.071-6.379,13.835-6.491
					c3.222-0.062,6.072,3.646,8.402,5.454c2.315,1.799,4.753,2.615,7.68,2.115c8.402-1.432,14.819-8.216,23.399-9.119
					c0.689-0.071,0.696-1.158,0-1.086c-7.792,0.82-13.793,6.16-21.05,8.545c-4.292,1.41-7.33,0.444-10.676-2.367
					c-2.138-1.797-4.254-4.104-7.135-4.581c-4.55-0.755-8.748,2.541-12.218,4.936c-1.958,1.353-4.022,2.448-6.44,2.575
					c-3.809,0.199-7.411-2.244-10.33-4.388C610.9,100.782,610.359,101.725,610.917,102.135L610.917,102.135z"/>
			</g>
		</g>
		<g>
			<g>
				<path fill="#FDFDFE" d="M638.809,80.135c1.282-3.576,3.729-6.736,6.326-9.459c2.678-2.808,6.1-5.331,10.151-3.981
					c2.566,0.855,4.301,2.668,7.117,2.978c2.936,0.322,6.146-0.504,8.806-1.675c5.226-2.298,8.76-7.216,12.187-11.554
					c4.21-5.332,8.807-10.114,15.417-12.313c0.661-0.22,0.378-1.269-0.289-1.047c-6.229,2.071-10.796,6.295-14.865,11.3
					c-4.01,4.934-7.715,10.561-13.844,13.034c-3.32,1.339-7.482,1.827-10.726,0.12c-2.721-1.432-4.605-2.639-7.814-2.167
					c-3.122,0.459-5.865,3.373-7.872,5.571c-2.351,2.576-4.459,5.608-5.641,8.904C637.524,80.507,638.574,80.789,638.809,80.135
					L638.809,80.135z"/>
			</g>
		</g>
		<g>
			<g>
				<path fill="#FDFDFE" d="M638.285,85.027c3.979-0.017,8.41,0.053,11.706-2.504c1.32-1.023,2.307-2.48,3.241-3.844
					c1.661-2.42,3.277-4.886,4.862-7.354c2.598-4.047,5.659-8.031,10.346-9.68c4.835-1.701,10.486-1.239,15.521-1.239
					c0.699,0,0.699-1.086,0-1.086c-4.96,0-10.15-0.261-14.991,1.027c-3.87,1.03-6.79,3.657-9.214,6.738
					c-3.267,4.149-5.628,8.968-8.948,13.073c-3.088,3.814-7.996,3.765-12.521,3.781C637.586,83.943,637.586,85.03,638.285,85.027
					L638.285,85.027z"/>
			</g>
		</g>
		<g>
			<g>
				<path fill="#FDFDFE" d="M601.9,114.596c4.826,0.631,9.371,2.801,13.98,4.256c3.727,1.176,8.175,2.299,11.834,0.408
					c3.553-1.834,5.851-5.793,7.859-9.07c2.808-4.58,5.412-8.909,9.937-12.023c7.489-5.155,17.564-2.199,25.04-7.641
					c3.338-2.43,5.551-6.219,7.65-9.683c2.652-4.37,5.287-8.741,9.238-12.08c0.536-0.452-0.236-1.217-0.769-0.768
					c-6.997,5.912-9.42,15.411-16.31,21.305c-6.881,5.886-17.179,3.083-24.779,7.532c-8.062,4.721-9.979,14.32-16.654,20.264
					c-4.019,3.576-9.642,1.736-14.176,0.254c-4.243-1.39-8.393-3.257-12.854-3.84C601.207,113.419,601.217,114.506,601.9,114.596
					L601.9,114.596z"/>
			</g>
		</g>
		<g>
			<g>
				<path fill="#FDFDFE" d="M608.637,92.376c-0.048-7.901-3.47-27.284,9.367-26.652c2.369,0.117,4.715,1.271,6.858,2.175
					c2.571,1.084,5.132,2.062,7.906,2.475c3.691,0.55,8.33,0.461,11.337-2.096c2.55-2.168,3.74-5.365,4.985-8.377
					c2.027-4.91,4.457-9.874,8.92-13.006c4.921-3.452,10.858-2.833,16.338-1.335c6.057,1.655,11.828,4.147,17.979,5.493
					c0.684,0.149,0.974-0.896,0.289-1.047c-6.379-1.396-12.384-3.964-18.668-5.681c-4.917-1.344-9.942-1.649-14.648,0.563
					c-4.783,2.249-7.767,6.987-9.918,11.612c-1.688,3.625-2.719,7.923-5.725,10.738c-4.069,3.812-11.396,2.356-16.016,0.633
					c-4.474-1.668-8.948-4.464-13.802-2.56c-4.706,1.848-5.861,6.436-6.363,10.989c-0.589,5.345,0.04,10.726,0.072,16.077
					C607.555,93.076,608.641,93.076,608.637,92.376L608.637,92.376z"/>
			</g>
		</g>
		<g>
			<g>
				<path fill="#FDFDFE" d="M624.894,81.539c0.745-6.396,0.435-16.683,7.641-19.551c4.196-1.67,9.251-0.974,13.244,0.818
					c3.702,1.661,7.115,3.34,11.268,2.443c6.888-1.488,12.394-8.983,16.428-14.169c4.85-6.233,9.047-12.928,13.278-19.586
					c0.377-0.593-0.563-1.137-0.938-0.548c-4.423,6.959-8.826,13.934-13.934,20.42c-4.841,6.146-11.975,15.196-20.851,12.519
					c-4.188-1.264-7.404-3.62-11.904-3.822c-3.177-0.143-6.837,0.227-9.429,2.257c-5.396,4.229-5.174,13.071-5.89,19.219
					C623.727,82.232,624.813,82.227,624.894,81.539L624.894,81.539z"/>
			</g>
		</g>
		<g>
			<g>
				<path fill="#FDFDFE" d="M672.391,85.154c6.157-0.482,10.85-3.223,14.357-8.274c4.093-5.892,6.365-12.924,10.065-19.065
					c0.362-0.601-0.577-1.147-0.938-0.548c-3.312,5.497-5.617,11.501-8.808,17.059c-3.284,5.724-8.002,9.219-14.679,9.742
					C671.697,84.123,671.692,85.209,672.391,85.154L672.391,85.154z"/>
			</g>
		</g>
		<g>
			<g>
				<path fill="#FDFDFE" d="M627.447,93.693c4.646,0.041,9.399,0.777,14.026,0.102c3.768-0.551,6.364-2.768,8.876-5.439
					c2.651-2.821,6.032-4.238,9.901-3.951c4.077,0.304,8.021,0.957,12.14,0.75c0.697-0.034,0.7-1.12,0-1.086
					c-3.932,0.197-7.767-0.256-11.657-0.702c-2.968-0.343-5.99,0.28-8.521,1.901c-3.22,2.059-4.93,5.401-8.639,6.883
					c-4.816,1.924-11.072,0.504-16.126,0.457C626.747,92.602,626.747,93.688,627.447,93.693L627.447,93.693z"/>
			</g>
		</g>
		<g>
			<path fill="#FDFDFE" d="M591.208,112.77c2.191,3.233,5.771,4.631,8,3.121L640.982,87.6c2.229-1.51,2.259-5.353,0.07-8.586l0,0
				c-2.191-3.233-5.773-4.633-8.003-3.125l-41.771,28.293C589.05,105.689,589.018,109.534,591.208,112.77L591.208,112.77z"/>
			<path fill="#FDFDFE" d="M597.133,117.042L597.133,117.042c-2.273,0-4.716-1.521-6.374-3.968c-1.12-1.655-1.729-3.521-1.715-5.251
				c0.015-1.806,0.7-3.259,1.93-4.091l41.771-28.293c0.688-0.465,1.487-0.7,2.378-0.7c2.275,0,4.72,1.521,6.379,3.97
				c2.353,3.477,2.256,7.666-0.215,9.34l-41.774,28.291C598.825,116.806,598.024,117.042,597.133,117.042z M635.123,75.825
				c-0.67,0-1.266,0.173-1.77,0.514l-41.771,28.292c-0.926,0.627-1.442,1.764-1.454,3.201c-0.012,1.514,0.531,3.158,1.528,4.633
				c1.438,2.121,3.587,3.491,5.476,3.491c0.671,0,1.267-0.173,1.771-0.515l41.774-28.291c1.976-1.339,1.942-4.853-0.074-7.832
				C639.165,77.196,637.013,75.825,635.123,75.825z"/>
		</g>
	</g>
</g>
<g id="Layer_3">
	<g>
		<g id="g3" transform="matrix(0.95,0,0,0.95,6.985925,4.12585)">
			<path id="path5" fill="#FFFFFF" d="M662.597,46.268v-2.662h0.363l1.396,2.089v-2.089h0.338v2.662h-0.363l-1.396-2.089v2.089
				H662.597z"/>
			<path id="path7" fill="#FFFFFF" d="M665.299,46.268v-2.662h0.355V44.7h1.378v-1.094h0.353v2.662h-0.353v-1.254h-1.378v1.254
				H665.299z"/>
		</g>
		<g id="g9" transform="matrix(0.95,0,0,0.95,6.985925,4.12585)">
			<path id="path11" fill="#FFFFFF" d="M667.767,46.438l0.244-0.034c0.029,0.139,0.077,0.239,0.145,0.3
				c0.068,0.062,0.15,0.092,0.25,0.092c0.115,0,0.215-0.04,0.294-0.119c0.078-0.081,0.118-0.179,0.118-0.297
				c0-0.112-0.036-0.205-0.111-0.278c-0.074-0.073-0.169-0.11-0.283-0.11c-0.046,0-0.104,0.01-0.174,0.027l0.028-0.215
				c0.017,0.002,0.03,0.003,0.04,0.003c0.105,0,0.198-0.027,0.282-0.082c0.084-0.054,0.126-0.138,0.126-0.251
				c0-0.089-0.032-0.164-0.091-0.223c-0.062-0.059-0.14-0.088-0.235-0.088c-0.097,0-0.177,0.029-0.241,0.09s-0.105,0.15-0.123,0.271
				l-0.245-0.044c0.03-0.164,0.099-0.292,0.206-0.382c0.107-0.09,0.237-0.135,0.397-0.135c0.11,0,0.21,0.023,0.301,0.07
				c0.093,0.047,0.161,0.111,0.211,0.191c0.048,0.081,0.074,0.165,0.074,0.257c0,0.086-0.025,0.164-0.069,0.235
				c-0.048,0.071-0.116,0.126-0.208,0.168c0.118,0.028,0.211,0.084,0.277,0.17c0.065,0.086,0.098,0.193,0.098,0.322
				c0,0.174-0.064,0.322-0.191,0.444c-0.127,0.121-0.288,0.182-0.481,0.182c-0.178,0-0.324-0.052-0.438-0.156
				C667.85,46.738,667.783,46.603,667.767,46.438z"/>
		</g>
		<path id="polygon13" fill="#FFFFFF" d="M638.018,45.21h-1.127l0.434-4.298l0.133-0.066l0.125,0.066L638.018,45.21z"/>
		<path id="polygon15" fill="#FFFFFF" d="M632.402,38.072v-0.287l5.055,2.915v0.147l-0.133,0.066L632.402,38.072z"/>
		<g id="g17" transform="matrix(0.95,0,0,0.95,6.985925,4.12585)">
			<path id="path19" fill="#FFFFFF" d="M669.82,36.115l0.354,0.088c-0.074,0.29-0.207,0.511-0.398,0.663
				c-0.191,0.153-0.427,0.229-0.703,0.229c-0.287,0-0.52-0.059-0.699-0.175c-0.181-0.117-0.316-0.286-0.41-0.508
				s-0.141-0.461-0.141-0.714c0-0.278,0.052-0.52,0.158-0.727c0.106-0.206,0.257-0.363,0.451-0.47
				c0.195-0.107,0.411-0.161,0.646-0.161c0.266,0,0.489,0.068,0.67,0.204c0.181,0.136,0.308,0.326,0.378,0.573l-0.344,0.081
				c-0.062-0.193-0.152-0.335-0.268-0.423c-0.117-0.088-0.265-0.133-0.443-0.133c-0.203,0-0.374,0.049-0.512,0.147
				c-0.137,0.099-0.232,0.23-0.29,0.395c-0.055,0.165-0.083,0.336-0.083,0.512c0,0.227,0.035,0.424,0.101,0.593
				c0.066,0.169,0.168,0.295,0.305,0.379c0.14,0.083,0.291,0.125,0.451,0.125c0.197,0,0.364-0.057,0.501-0.171
				C669.68,36.508,669.771,36.34,669.82,36.115z"/>
			<path id="path21" fill="#FFFFFF" d="M670.5,35.754c0-0.443,0.119-0.788,0.359-1.038c0.235-0.25,0.542-0.375,0.918-0.375
				c0.246,0,0.468,0.059,0.665,0.176c0.196,0.118,0.347,0.281,0.45,0.492c0.105,0.21,0.155,0.448,0.155,0.714
				c0,0.27-0.053,0.511-0.161,0.725c-0.11,0.213-0.264,0.374-0.466,0.484c-0.198,0.109-0.414,0.164-0.647,0.164
				c-0.25,0-0.474-0.06-0.671-0.182c-0.197-0.121-0.346-0.286-0.449-0.495C670.551,36.208,670.5,35.987,670.5,35.754z
				 M670.865,35.758c0,0.32,0.085,0.574,0.259,0.758c0.173,0.185,0.39,0.277,0.65,0.277c0.264,0,0.483-0.094,0.654-0.28
				c0.172-0.186,0.258-0.451,0.258-0.794c0-0.216-0.037-0.406-0.11-0.567c-0.074-0.162-0.181-0.287-0.322-0.376
				c-0.142-0.089-0.299-0.134-0.475-0.134c-0.25,0-0.466,0.086-0.646,0.257C670.953,35.071,670.865,35.357,670.865,35.758z"/>
			<path id="path23" fill="#FFFFFF" d="M673.393,35.754c0-0.443,0.119-0.788,0.357-1.038c0.237-0.25,0.544-0.375,0.919-0.375
				c0.246,0,0.468,0.059,0.665,0.176c0.197,0.118,0.347,0.281,0.45,0.492c0.105,0.21,0.156,0.448,0.156,0.714
				c0,0.27-0.055,0.511-0.163,0.725c-0.109,0.213-0.264,0.374-0.464,0.484c-0.199,0.109-0.415,0.164-0.648,0.164
				c-0.251,0-0.475-0.06-0.672-0.182c-0.196-0.121-0.345-0.286-0.446-0.495C673.443,36.208,673.393,35.987,673.393,35.754z
				 M673.757,35.758c0,0.32,0.085,0.574,0.259,0.758c0.172,0.185,0.389,0.277,0.649,0.277c0.266,0,0.483-0.094,0.656-0.28
				c0.172-0.186,0.256-0.451,0.256-0.794c0-0.216-0.036-0.406-0.109-0.567c-0.074-0.162-0.181-0.287-0.322-0.376
				c-0.142-0.089-0.3-0.134-0.475-0.134c-0.25,0-0.464,0.086-0.646,0.257C673.846,35.071,673.757,35.357,673.757,35.758z"/>
		</g>
		<path id="polygon25" fill="#FFFFFF" d="M641.087,38.609l0.125,0.213l-3.63,2.09l-0.125-0.066v-0.147L641.087,38.609z"/>
		<path id="polygon27" fill="#FFFFFF" d="M627.464,40.927l-0.117-0.081l-0.008-0.14l5.063-2.921v0.287L627.464,40.927z"/>
		<g id="g29" transform="matrix(0.95,0,0,0.95,6.985925,4.12585)">
			<path id="path31" fill="#FFFFFF" d="M642.629,47.507v-2.663h0.353v1.095h1.378v-1.095h0.354v2.663h-0.354v-1.255h-1.378v1.255
				H642.629z"/>
			<path id="path33" fill="#FFFFFF" d="M645.295,47.507v-2.663h0.363l1.396,2.09v-2.09h0.338v2.663h-0.363l-1.395-2.09v2.09H645.295
				z"/>
		</g>
		<path id="polygon35" fill="#FFFFFF" d="M622.039,38.623l-0.028-0.155l0.103-0.088l5.227,2.326l0.008,0.14l-0.133,0.081
			L622.039,38.623z"/>
		<path id="polygon37" fill="#FFFFFF" d="M618.257,42.825l-0.154-0.014l-0.044-0.14l3.812-4.231l0.142,0.029l0.028,0.155
			L618.257,42.825z"/>
		<path id="polygon39" fill="#FFFFFF" d="M617.882,41.935l-0.185-0.169l3.23-3.591l0.184,0.169L617.882,41.935z"/>
		<path id="polygon41" fill="#FFFFFF" d="M620.215,46.226l-0.214,0.125l-1.979-3.43l0.08-0.11l0.154,0.014L620.215,46.226z"/>
		<path id="polygon43" fill="#FFFFFF" d="M626.616,46.549l0.236,0.213l-4.401,0.936l-0.052-0.25L626.616,46.549z"/>
		<path id="polygon45" fill="#FFFFFF" d="M627.214,40.927l0.133-0.081l0.117,0.081l-0.61,5.836l-0.236-0.213L627.214,40.927z"/>
		<path id="polygon47" fill="#FFFFFF" d="M626.286,41.376l0.242,0.022l-0.471,4.547l-0.251-0.029L626.286,41.376z"/>
		<path id="polygon49" fill="#FFFFFF" d="M620.104,33.022l0.199-0.212l1.81,5.57l-0.103,0.088l-0.142-0.029L620.104,33.022z"/>
		<path id="polygon51" fill="#FFFFFF" d="M614.532,31.838l-0.044-0.139l0.095-0.104l5.721,1.215l-0.199,0.212L614.532,31.838z"/>
		<path id="rect53" fill="#FFFFFF" d="M619.552,33.546l-0.051,0.243l-4.726-1.003l0.052-0.243L619.552,33.546z"/>
		<path id="polygon55" fill="#FFFFFF" d="M610.721,36.069l-0.279-0.059l3.907-4.342l0.14,0.03l0.044,0.139L610.721,36.069z"/>
		<path id="polygon57" fill="#FFFFFF" d="M612.487,41.494l-0.199,0.212l-1.847-5.696l0.279,0.059L612.487,41.494z"/>
		<path id="polygon59" fill="#FFFFFF" d="M613.185,40.81l-0.241,0.073l-1.495-4.592l0.243-0.073L613.185,40.81z"/>
		<path id="polygon61" fill="#FFFFFF" d="M618.058,42.671l0.044,0.14l-0.08,0.11l-5.733-1.215l0.199-0.212L618.058,42.671z"/>
		<g>
			<path id="path63_1_" fill="#FFFFFF" d="M642.277,45.342h1.178 M642.866,44.754v1.177 M648.917,36.048h1.178"/>
			<path fill="#010101" d="M642.966,45.931h-0.199v-0.49h-0.489v-0.198h0.489v-0.489h0.199v0.489h0.489v0.198h-0.489V45.931z
				 M650.094,36.147h-1.178v-0.198h1.178V36.147z"/>
		</g>
		<g id="g65" transform="matrix(0.95,0,0,0.95,6.985925,4.12585)">
			<path id="path67" fill="#FFFFFF" d="M633.766,24.646v-2.662h0.354v1.094h1.376v-1.094h0.355v2.663h-0.355v-1.255h-1.376v1.255
				h-0.354V24.646z"/>
			<path id="path69" fill="#FFFFFF" d="M636.33,23.351c0-0.443,0.119-0.788,0.356-1.038c0.237-0.25,0.544-0.375,0.918-0.375
				c0.248,0,0.469,0.058,0.666,0.176c0.197,0.117,0.347,0.281,0.451,0.491c0.104,0.21,0.155,0.448,0.155,0.714
				c0,0.27-0.056,0.511-0.163,0.725c-0.109,0.213-0.264,0.374-0.464,0.484c-0.201,0.109-0.415,0.164-0.647,0.164
				c-0.252,0-0.476-0.06-0.672-0.182c-0.197-0.12-0.346-0.286-0.449-0.495C636.38,23.806,636.33,23.585,636.33,23.351z
				 M636.693,23.355c0,0.321,0.086,0.574,0.258,0.758c0.174,0.185,0.39,0.277,0.651,0.277c0.264,0,0.483-0.094,0.656-0.28
				c0.171-0.186,0.257-0.451,0.257-0.793c0-0.217-0.037-0.407-0.111-0.567c-0.073-0.162-0.181-0.287-0.322-0.376
				c-0.141-0.089-0.299-0.134-0.475-0.134c-0.25,0-0.465,0.085-0.643,0.257C636.784,22.668,636.693,22.954,636.693,23.355z"/>
		</g>
		<path id="polygon71" fill="#FFFFFF" d="M613.111,27.871l0.244-0.081l1.229,3.805l-0.096,0.104l-0.14-0.03L613.111,27.871z"/>
	</g>
</g>
<g id="Layer_4">
	<g>
		<path id="polygon3_2_" fill="#B0AFB0" d="M595.57,51.241v-0.227l4.006,2.305v0.117l-0.104,0.053L595.57,51.241z"/>
		<path id="polygon5_2_" fill="#B0AFB0" d="M599.682,53.488l-0.105-0.053v-0.117l3.998-2.305v0.227L599.682,53.488z"/>
		<g id="g7_2_" transform="matrix(0.95,0,0,0.95,5.793975,3.20085)">
			<path id="path9_2_" fill="#B0AFB0" d="M632.449,53.012c0-0.351,0.094-0.624,0.282-0.821c0.187-0.197,0.431-0.297,0.728-0.297
				c0.193,0,0.37,0.046,0.525,0.139c0.157,0.094,0.277,0.223,0.357,0.389c0.083,0.166,0.122,0.354,0.122,0.566
				c0,0.213-0.042,0.404-0.13,0.572c-0.085,0.169-0.209,0.296-0.366,0.383c-0.157,0.086-0.329,0.13-0.512,0.13
				c-0.198,0-0.375-0.048-0.53-0.143c-0.156-0.096-0.274-0.228-0.356-0.392C632.488,53.372,632.449,53.196,632.449,53.012z
				 M632.735,53.015c0,0.253,0.069,0.453,0.205,0.599c0.139,0.146,0.309,0.218,0.516,0.218c0.21,0,0.381-0.073,0.516-0.22
				c0.138-0.148,0.206-0.357,0.206-0.628c0-0.171-0.03-0.32-0.086-0.448c-0.059-0.129-0.143-0.228-0.256-0.298
				c-0.112-0.07-0.235-0.105-0.375-0.105c-0.197,0-0.368,0.068-0.51,0.203C632.807,52.471,632.735,52.699,632.735,53.015z"/>
			<path id="path11_1_" fill="#B0AFB0" d="M634.831,54.037V51.93h0.28v0.866h1.091V51.93h0.281v2.107h-0.281v-0.992h-1.091v0.992
				H634.831L634.831,54.037z"/>
		</g>
		<path id="polygon13_1_" fill="#B0AFB0" d="M603.574,51.241v-0.227l2.998,1.729l-0.1,0.175L603.574,51.241z"/>
		<g id="g15_2_" transform="matrix(0.95,0,0,0.95,5.793975,3.20085)">
			<path id="path17_2_" fill="#B0AFB0" d="M628.234,45.719c0-0.35,0.095-0.623,0.282-0.821c0.187-0.197,0.43-0.296,0.727-0.296
				c0.194,0,0.37,0.046,0.526,0.138c0.155,0.094,0.273,0.223,0.357,0.39c0.08,0.165,0.124,0.354,0.124,0.565
				c0,0.213-0.044,0.405-0.133,0.574c-0.084,0.169-0.207,0.296-0.366,0.382c-0.158,0.087-0.329,0.13-0.512,0.13
				c-0.196,0-0.375-0.047-0.53-0.144c-0.154-0.095-0.273-0.226-0.355-0.392C628.272,46.08,628.234,45.904,628.234,45.719z
				 M628.52,45.723c0,0.254,0.069,0.454,0.205,0.6c0.138,0.146,0.309,0.218,0.514,0.218c0.211,0,0.381-0.073,0.518-0.22
				c0.136-0.148,0.204-0.357,0.204-0.628c0-0.172-0.029-0.321-0.087-0.449c-0.054-0.128-0.141-0.227-0.254-0.297
				c-0.111-0.071-0.235-0.106-0.375-0.106c-0.197,0-0.367,0.068-0.509,0.204C628.592,45.18,628.52,45.406,628.52,45.723z"/>
		</g>
		<path id="rect19_2_" fill="#B0AFB0" d="M603.126,47.905h0.198v3.423h-0.198V47.905z"/>
		<path id="rect21_2_" fill="#B0AFB0" d="M603.825,47.905h0.197v3.423h-0.197V47.905z"/>
		<g id="g23_2_" transform="matrix(0.95,0,0,0.95,5.793975,3.20085)">
			<path id="path25_2_" fill="#B0AFB0" d="M624.197,58.901v-2.106h0.288l1.103,1.654v-1.654h0.268v2.106h-0.286l-1.105-1.652v1.652
				H624.197z"/>
			<path id="path27_2_" fill="#B0AFB0" d="M626.334,58.901v-2.106h0.282v0.866h1.089v-0.866h0.281v2.106h-0.281V57.91h-1.089v0.991
				H626.334z"/>
		</g>
		<g id="g29_1_" transform="matrix(0.95,0,0,0.95,5.793975,3.20085)">
			<path id="path31_1_" fill="#B0AFB0" d="M629.306,59.268v0.186h-1.044c-0.002-0.048,0.005-0.092,0.022-0.135
				c0.027-0.071,0.069-0.14,0.128-0.21c0.059-0.07,0.144-0.149,0.252-0.239c0.174-0.14,0.289-0.254,0.349-0.335
				c0.063-0.083,0.091-0.16,0.091-0.234c0-0.077-0.028-0.141-0.083-0.194c-0.054-0.053-0.127-0.079-0.215-0.079
				c-0.094,0-0.17,0.028-0.225,0.085c-0.055,0.056-0.084,0.133-0.084,0.233l-0.199-0.021c0.013-0.151,0.066-0.264,0.153-0.341
				c0.089-0.079,0.211-0.117,0.362-0.117c0.152,0,0.269,0.042,0.36,0.126c0.086,0.084,0.132,0.188,0.132,0.312
				c0,0.062-0.012,0.125-0.037,0.187c-0.027,0.06-0.07,0.125-0.131,0.192c-0.059,0.067-0.159,0.16-0.298,0.278
				c-0.116,0.098-0.192,0.164-0.225,0.199c-0.033,0.034-0.062,0.07-0.081,0.105h0.775V59.268z"/>
		</g>
		<path id="polygon33_2_" fill="#B0AFB0" d="M600.017,56.888h-0.891l0.345-3.399l0.104-0.053l0.105,0.053L600.017,56.888z"/>
		<path id="polygon35_1_" fill="#B0AFB0" d="M591.672,53.494l-0.101-0.059v-0.117l3.999-2.305v0.227L591.672,53.494z"/>
		<path id="polygon37_1_" fill="#B0AFB0" d="M587.573,51.241v-0.227l3.998,2.305v0.117l-0.099,0.059L587.573,51.241z"/>
		<path id="polygon39_1_" fill="#B0AFB0" d="M587.52,52.009l0.1-0.168l3.307,1.91l-0.101,0.174L587.52,52.009z"/>
		<path id="polygon41_1_" fill="#B0AFB0" d="M583.667,53.494l-0.198-0.116l4.104-2.364v0.227L583.667,53.494z"/>
		<path id="polygon43_1_" fill="#B0AFB0" d="M583.667,57.999l-0.198,0.116v-4.738l0.198,0.116V57.999z"/>
		<path id="rect45_2_" fill="#B0AFB0" d="M584.161,53.837h0.197v3.818h-0.197V53.837z"/>
		<path id="polygon47_1_" fill="#B0AFB0" d="M587.573,60.252v0.227l-4.104-2.363L583.667,58L587.573,60.252z"/>
		<path id="polygon49_1_" fill="#B0AFB0" d="M591.473,57.999l0.198,0.116l-4.099,2.363v-0.227L591.473,57.999z"/>
		<path id="polygon51_1_" fill="#B0AFB0" d="M590.825,57.569l0.101,0.174l-3.307,1.91l-0.1-0.175L590.825,57.569z"/>
		<path id="polygon53_2_" fill="#B0AFB0" d="M591.473,53.494l0.099-0.059l0.101,0.059v4.622L591.474,58L591.473,53.494
			L591.473,53.494z"/>
	</g>
</g>
<g id="Layer_5">
	<g>
		<g id="g4" transform="matrix(-1.1035701,0,0,1.1035701,139.71861,44.150185)">
			<path id="path6" fill="#7B7B7B" d="M-408.446,27.184l-0.019,0.846l0.237,0.005l0.042-1.856l-0.238-0.006l-0.017,0.802
				l-0.957-0.02l0.019-0.803l-0.237-0.004l-0.042,1.856l0.241,0.006l0.019-0.846L-408.446,27.184z"/>
		</g>
		<g id="g8" transform="matrix(-1.1035701,0,0,1.1035701,121.87398,43.832246)">
			<path id="path10" fill="#7B7B7B" d="M-423.176,26.463c-0.533-0.012-0.903,0.373-0.915,0.952
				c-0.013,0.581,0.339,0.981,0.873,0.993c0.225,0.004,0.427-0.058,0.581-0.183c0.206-0.165,0.331-0.45,0.338-0.753
				C-422.287,26.875-422.63,26.476-423.176,26.463z M-423.182,26.672c0.404,0.009,0.656,0.321,0.645,0.788
				c-0.01,0.449-0.284,0.748-0.676,0.738c-0.396-0.009-0.651-0.319-0.642-0.779C-423.844,26.963-423.574,26.663-423.182,26.672z"/>
		</g>
		<g id="g12" transform="matrix(1.1035701,0,0,1.1035701,-4.5188707,54.806666)">
			<path id="path14" fill="#7B7B7B" d="M529.104,17.768l0.092,0.05l0.004,0.108l-2.597,1.58l-0.096-0.158L529.104,17.768z"/>
		</g>
		<g id="g16" transform="matrix(1.1035701,0,0,1.1035701,23.788144,54.806666)">
			<path id="path18" fill="#7B7B7B" d="M507.24,19.737l0.006,0.211l-3.697-2.021l-0.003-0.108l0.089-0.056L507.24,19.737z"/>
		</g>
		<g id="g20" transform="matrix(1.1035701,0,0,1.1035701,61.751397,54.530773)">
			<path id="path22" fill="#7B7B7B" d="M476.395,17.826l0.095,0.158l-3.644,2.216l-0.006-0.211L476.395,17.826z"/>
		</g>
		<g id="g24" transform="matrix(1.1035701,0,0,1.1035701,14.476771,2.4603853)">
			<path id="path26" fill="#7B7B7B" d="M511.867,60.167c-0.533,0.012-0.886,0.412-0.873,0.994c0.013,0.58,0.383,0.964,0.919,0.951
				c0.223-0.005,0.422-0.077,0.57-0.208c0.197-0.176,0.312-0.465,0.304-0.769C512.775,60.536,512.412,60.154,511.867,60.167z
				 M511.871,60.376c0.403-0.009,0.669,0.291,0.68,0.759c0.011,0.448-0.25,0.76-0.642,0.769c-0.395,0.008-0.665-0.291-0.675-0.75
				C511.221,60.697,511.48,60.385,511.871,60.376z"/>
		</g>
		<g id="g28" transform="matrix(1.1035701,0,0,1.1035701,36.360677,2.7783129)">
			<path id="path30" fill="#7B7B7B" d="M494.462,60.866l0.019,0.847l0.235-0.006l-0.042-1.856l-0.236,0.004l0.019,0.803l-0.957,0.02
				l-0.019-0.802l-0.234,0.004l0.041,1.857l0.239-0.005l-0.019-0.845L494.462,60.866z"/>
		</g>
		<g id="g32" transform="matrix(1.1035701,0,0,1.1035701,22.850551,24.789338)">
			<path id="path34" fill="#7B7B7B" d="M504.24,42.083l0.181-0.004l0.065,2.886l-0.089,0.057l-0.092-0.051L504.24,42.083z"/>
		</g>
	</g>
</g>
<g id="Layer_6">
	<g>
		<g>
			<path fill="#484748" d="M580.839,87.354v0.271l-4.909,2.842l-0.129-0.215L580.839,87.354"/>
			<path fill="#484748" d="M584.572,90.408c0-0.428,0.114-0.762,0.343-1.003c0.229-0.24,0.523-0.361,0.887-0.361
				c0.236,0,0.451,0.058,0.641,0.17c0.191,0.113,0.336,0.271,0.437,0.476c0.1,0.201,0.149,0.433,0.149,0.688
				c0,0.263-0.054,0.494-0.158,0.698c-0.104,0.207-0.255,0.361-0.446,0.468c-0.192,0.106-0.4,0.158-0.623,0.158
				c-0.242,0-0.458-0.058-0.647-0.175c-0.19-0.116-0.334-0.276-0.434-0.479C584.62,90.848,584.572,90.634,584.572,90.408z
				 M584.923,90.414c0,0.309,0.082,0.553,0.249,0.729c0.166,0.181,0.375,0.269,0.627,0.269c0.256,0,0.466-0.091,0.631-0.271
				c0.165-0.179,0.248-0.435,0.248-0.765c0-0.21-0.036-0.394-0.106-0.548c-0.068-0.155-0.175-0.276-0.31-0.363
				c-0.136-0.085-0.288-0.128-0.459-0.128c-0.239,0-0.447,0.083-0.62,0.248C585.009,89.751,584.923,90.027,584.923,90.414z"/>
			<path fill="#484748" d="M587.485,91.658v-2.567h0.34v1.056h1.333v-1.056h0.339v2.567h-0.339v-1.21h-1.333v1.21H587.485z"/>
			<path fill="#484748" d="M584.44,89.434l-0.13,0.217l-3.473-2.024v-0.272L584.44,89.434"/>
		</g>
	</g>
</g>
</svg>
